<svg width="1590" height="1567" viewBox="0 0 1590 1567" fill="none" xmlns="http://www.w3.org/2000/svg">
<path fill-rule="evenodd" clip-rule="evenodd" d="M139.804 334.669C50.5496 459.731 13.2158 625.888 2.80569 777.116C1.64837 787.718 1.02178 798.471 0.953331 809.349L0.89402 818.653C0.383385 902.079 32.3746 980.314 91.0053 1038.94C149.636 1097.58 227.878 1129.57 311.297 1129.06L669.813 1126.81C654.853 1115.67 640.602 1103.39 627.179 1089.96C590.251 1053.04 561.817 1009.87 542.803 962.78L316.986 964.191C276.338 964.443 238.22 948.855 209.657 920.293C181.102 891.737 165.507 853.626 165.759 812.978C166.011 772.387 182.093 734.088 211.05 705.131C240.001 676.18 278.307 660.091 318.891 659.832L682.186 657.566C722.84 657.307 760.952 672.902 789.514 701.464C817.134 729.084 832.583 765.639 833.346 804.779C833.472 806.102 833.534 807.433 833.526 808.792C833.405 828.907 841.115 847.761 855.248 861.895C869.375 876.021 888.236 883.739 908.344 883.611L989.682 883.106C995.175 860.012 998.073 836.332 998.218 812.408L998.277 803.118C998.802 719.678 966.797 641.443 908.173 582.819C849.543 524.188 771.308 492.183 687.874 492.701L315.269 495.034C296.289 495.153 277.689 496.972 259.614 500.344C365 259.876 561.5 155 879.5 155C1052.14 155 1210.57 214.238 1334.46 312.962L1341 314.5L1348.5 315L1363 312.962L1376.5 309L1386.5 302.5L1393 293L1396.26 282.5L1398 271V265L1396.26 259.876C1288.47 142.734 1146.37 60.0238 988.807 22.7153C831.247 -14.5933 665.672 -4.73692 514.043 50.977C362.414 106.691 231.897 205.629 139.804 334.669ZM1274.79 1123.02C1283.72 1122.97 1292.6 1122.54 1301.41 1121.74C1171.4 1301.53 956.483 1419 713.362 1419C538.99 1419 379.126 1358.57 254.69 1258.06L245 1256H233.5L223.5 1258.06L217.5 1260.5L211.5 1265L207 1269L203.5 1274.5L201 1279L199 1283.5L197 1289L196 1293.5L195.5 1297.5V1301.5L197 1307C304.789 1424.14 446.888 1507.48 604.448 1544.78C762.008 1582.09 927.583 1572.24 1079.21 1516.52C1230.84 1460.81 1361.36 1361.87 1453.45 1232.83C1545.54 1103.79 1589.15 950.747 1589.15 794C1588.28 712.601 1556.41 636.469 1499.05 579.109C1440.42 520.485 1362.18 488.487 1278.75 489.005L920.241 491.241C935.2 502.381 949.459 514.673 962.882 528.096C999.802 565.016 1028.23 608.193 1047.25 655.274L1273.07 653.863C1313.72 653.61 1351.83 669.198 1380.4 697.761C1408.96 726.323 1424.55 764.435 1424.29 805.089C1424.04 845.681 1407.95 883.972 1379 912.923C1350.05 941.88 1311.75 957.97 1271.17 958.214L907.868 960.488C867.213 960.747 829.102 945.152 800.54 916.589C772.927 888.977 757.478 852.422 756.715 813.282C756.582 811.966 756.519 810.621 756.528 809.262C756.656 789.154 748.939 770.292 734.812 756.166C720.679 742.032 701.824 734.322 681.717 734.45L600.372 734.962C594.879 758.042 591.988 781.715 591.836 805.646L591.776 814.949C591.259 898.383 623.257 976.611 681.888 1035.24C740.518 1093.87 818.753 1125.88 902.18 1125.35L1274.79 1123.02Z" fill="#002729"/>
</svg>
